# xmcd
#
# Track frame offsets:
#   150
#   13644
#   30577
#   46756
#   65441
#   81731
#   91716
#   104861
#   120239
#   132788
#   147702
#   188054
#   203596
#   218723
#   231510
#   250644
#   267995
#   282642
#   294972
#   310094
#
# Disc length: 4286 seconds
#
# Revision: 0
# Processed by: cddbd v1.4PL0 Copyright (c) Steve Scherf et al.
# Submitted via: uFREEDB 1.6.0
#
DISCID=2510bc14
DTITLE=Various Artist - R and B - 40 # 1 hits
DYEAR=1900
DGENRE=UnClassifiable
TTITLE0=Nina Simone - Ain't got no, I got life
TTITLE1=The Temptations - Just my imaginations
TTITLE2=Harold Melvin - If you don't know me by now
TTITLE3=Gloria Gayner - Never can say goodbye
TTITLE4=Jesse Green - Nice and slow
TTITLE5=The Drifters - Save the last dance for me
TTITLE6=Ben E. King - Spanish Harlem
TTITLE7=Mary Wells - My Guy
TTITLE8=Sam and Dave - Soul man
TTITLE9=The Platters - The great pretender
TTITLE10=James Brown - Its a man's man's world (live)
TTITLE11=Al Wilson - Show and tell
TTITLE12=The Supremes - Baby love
TTITLE13=Rose Royse - Car wash (live)
TTITLE14=The Miracles - Love machine
TTITLE15=The Chi-Lites - Oh! Girl
TTITLE16=The Three Degrees - Dirty old man
TTITLE17=The Four Tops - I can't help myself
TTITLE18=The Real Thing - You to me are everything
TTITLE19=Booby Womack - Lookin' for a love
EXTD=
EXTT0=
EXTT1=
EXTT2=
EXTT3=
EXTT4=
EXTT5=
EXTT6=
EXTT7=
EXTT8=
EXTT9=
EXTT10=
EXTT11=
EXTT12=
EXTT13=
EXTT14=
EXTT15=
EXTT16=
EXTT17=
EXTT18=
EXTT19=
PLAYORDER=
